<?xml version="1.0" standalone="no"?><!DOCTYPE svg PUBLIC "-//W3C//DTD SVG 1.1//EN" "http://www.w3.org/Graphics/SVG/1.1/DTD/svg11.dtd"><svg t="1503302705120" class="icon" style="" viewBox="0 0 1024 1024" version="1.1" xmlns="http://www.w3.org/2000/svg" p-id="1803" xmlns:xlink="http://www.w3.org/1999/xlink" width="30" height="30"><defs><style type="text/css"></style></defs><path d="M875.1 421.3H790L572.7 229c1.4-5.4 2.2-10.9 2.2-16.4 0-35-28.5-63.5-63.5-63.5s-63.5 28.5-63.5 63.5c0 6.3 0.9 12.5 2.8 18.5L235.6 421.3h-88.1c-46.4 0-84.1 37.7-84.1 84.1v283c0 46.4 37.7 84.1 84.1 84.1h727.6c46.4 0 84.1-37.7 84.1-84.1v-283c0-46.4-37.7-84.1-84.1-84.1zM490.9 212.5c0-11.2 9.1-20.4 20.4-20.4 11.2 0 20.4 9.1 20.4 20.4 0 11.2-9.1 20.4-20.4 20.4-11.2 0-20.4-9.1-20.4-20.4zM300.7 421.3l175.8-155.6c10.4 6.8 22.3 10.4 34.8 10.4 13.2 0 25.7-4 36.4-11.5l177.1 156.8H300.7z m611.7 367c0 20.5-16.7 37.2-37.2 37.2H147.5c-20.5 0-37.2-16.7-37.2-37.2v-283c0-20.5 16.7-37.2 37.2-37.2h727.6c20.5 0 37.2 16.7 37.2 37.2v283z" p-id="1804" fill="#0e90d2"></path><path d="M817.6 542.7c-5.9-2.1-12.5-1.8-18.1 0.9-5.4 2.6-9.5 7.1-11.5 12.7l-38.2 101.1-38.2-101.2c-3-8.3-11.5-13.6-21.6-13.6-10.1 0-18.6 5.3-21.6 13.6l-38.2 101.2-38.2-101c-2-5.9-6.2-10.5-11.8-13.1-5.6-2.6-12-2.8-17.9-0.5-11.9 4.6-17.9 17.6-13.6 29.6l59.8 158.4c3 8.3 11.5 13.6 21.6 13.6 10.1 0 18.6-5.3 21.6-13.6L690 629.7l38.2 101.2c3.3 8.9 12.1 15 21.6 15 9.8 0 18.2-5.9 21.6-15l59.8-158.4c2.3-5.9 2.1-12.3-0.5-17.9-2.5-5.6-7.2-9.8-13.1-11.9zM491.1 589.4c13.1 0 23.4-10.3 23.4-23.4s-10.3-23.4-23.4-23.4h-80.8c-13.1 0-23.4 10.3-23.4 23.4v161.7c0 13.1 10.3 23.4 23.4 23.4h80.8c13.1 0 23.4-10.3 23.4-23.4s-10.3-23.4-23.4-23.4h-57.4v-34h57.4c13.1 0 23.4-10.3 23.4-23.4s-10.3-23.4-23.4-23.4h-57.4v-34h57.4zM329.4 543.8c-12.9 0-23.4 10.3-23.4 23v90.7l-79.1-104.3c-6.1-8.4-16.4-11.7-26.3-8.4-9.5 3.3-15.9 12.2-15.9 22v160.9c0 12.9 10.5 23.4 23.4 23.4 12.9 0 23.4-10.5 23.4-23.4v-91.1l79.1 104.8c4.7 6.1 11.7 9.7 18.7 9.7 2.6 0 5.3-0.5 7.6-1.4 9.5-3.3 15.8-12.2 15.8-22V566.8c0.2-12.7-10.4-23-23.3-23z" p-id="1805" fill="#0e90d2"></path></svg>