<?xml version="1.0" encoding="utf-8"?>
<!-- Generator: Adobe Illustrator 21.0.0, SVG Export Plug-In . SVG Version: 6.00 Build 0)  -->
<svg version="1.1" id="图层_1" xmlns="http://www.w3.org/2000/svg" xmlns:xlink="http://www.w3.org/1999/xlink" x="0px" y="0px"
	 width="55px" height="28px" viewBox="0 0 55 28" style="enable-background:new 0 0 55 28;" xml:space="preserve">
<style type="text/css">
	.st0{fill:#686868;}
</style>
<path class="st0" d="M54.8,22.9c0-0.8-0.3-1.5-0.9-2.1l-1.8-1.7c0,0-3.2,2.8-3.4,2.8h-9v-16H49v4.4h2.9c1.6,0,2.9-1.3,2.9-2.9V1
	H36.3c-1.6,0-2.9,1.3-2.9,2.9V17L22.3,1h-3.4C17.3,1,16,2.3,16,3.9v17.9H6.7v-5.5H3.6c-1.7,0-3.1,1.9-3.1,3.4v1.9
	c0,1.3,0.5,2.5,1.2,3.4c0.9,1.3,2.3,2.1,4,2.1h13.6c1.6,0,2.9-1.3,2.9-2.9V10.4l11,15.4c0.5,0.7,1.8,1.4,2.6,1.4h15.7l2.3-2.2
	C54.5,24.4,54.8,23.7,54.8,22.9L54.8,22.9z"/>
</svg>
