<?xml version="1.0" standalone="no"?><!DOCTYPE svg PUBLIC "-//W3C//DTD SVG 1.1//EN" "http://www.w3.org/Graphics/SVG/1.1/DTD/svg11.dtd"><svg t="1501752835539" class="icon" style="" viewBox="0 0 1024 1024" version="1.1" xmlns="http://www.w3.org/2000/svg" p-id="3278" xmlns:xlink="http://www.w3.org/1999/xlink" width="27" height="27"><defs><style type="text/css"></style></defs><path d="M316.96 432.768c-3.712 1.536-7.584 3.264-11.648 5.12l-0.448-9.312-35.36 6.048-16.768 92.128h33.056l12.096-60.032a14.912 14.912 0 0 1 6.528-8.384 10.432 10.432 0 0 1 7.424-1.856L240.64 800.768c-4 18.592-1.696 34.752 6.976 48.384 8.384 13.024 20.16 19.68 35.392 20H45.6c-15.84 0-28.064-6.656-36.768-20-8.672-13.632-11.008-29.792-6.976-48.384L114.944 255.04a82.88 82.88 0 0 1 26.56-47.456c13.952-13.344 28.832-20.032 44.672-20.032h237.856c-15.2 0.32-29.792 6.976-43.744 20a85.376 85.376 0 0 0-26.976 47.456l-36.352 177.76zM174.08 366.688H131.264l-17.216 88.416c-4.96 25.12-3.264 44.352 5.12 57.696 8.672 12.704 24.032 19.072 46.08 19.072 21.728 0 39.264-6.336 52.608-19.072 13.664-13.024 22.944-32.256 27.936-57.696l16.736-88.416H219.232l-16.736 87.008c-2.176 11.776-5.728 20.32-10.688 25.568a22.56 22.56 0 0 1-18.144 8.384c-7.776 0-12.864-2.784-15.36-8.384-3.104-5.28-3.264-13.792-0.48-25.568l16.256-87.008z" fill="#C10F14" p-id="3279"></path><path d="M528.736 725.408l-15.808 75.36c-3.744 18.592-1.408 34.752 6.976 48.384 8.384 13.024 20.16 19.68 35.36 20H283.008c-15.232-0.32-27.008-6.976-35.392-20-8.672-13.632-11.008-29.792-6.976-48.384l71.232-344.288h1.888c3.712 0.928 4.8 4.96 3.264 12.096L307.2 524.864h33.504l11.168-62.816c5.28-30.688-6.368-40.48-34.912-29.312L353.28 255.04a85.376 85.376 0 0 1 26.976-47.456c13.984-13.024 28.576-19.712 43.744-20h272.288c-15.2 0.32-29.632 6.976-43.296 20a85.44 85.44 0 0 0-27.008 47.456l-34.912 169.344c-7.424 0-17.056 3.104-28.832 9.312v-8.832l-34.016 6.048-15.808 91.68h31.2l12.096-60.032a11.68 11.68 0 0 1 5.6-7.904c2.464-1.856 5.44-2.496 8.832-1.856 1.856 0.64 2.944 1.536 3.264 2.784 0.928 1.248 0.928 4 0 8.352l-8.832 57.248h6.496l-9.312 44.192-18.112 0.48-29.344 139.136a43.744 43.744 0 0 0-1.376 11.168c0 3.136 1.056 5.28 3.264 6.528 2.464 1.472 6.688 2.4 12.544 2.72z m-48.864-73.504l5.12-21.408h33.056l2.304-16.736-77.28 0.48-2.784 16.736 18.144 0.896-4.16 20.928h-19.552l-2.784 20.032 17.216-0.928-6.976 38.624c-0.608 5.248-0.16 8.8 1.408 10.688 0.928 2.176 2.944 3.552 6.048 4.192a23.68 23.68 0 0 0 8.832 1.856l31.2-1.376 5.12-18.624-19.104-1.376c-3.104 0-4.8-0.32-5.12-0.928-1.536-1.568-0.928-6.976 1.888-16.288 2.176-8.384 4.032-13.824 5.568-16.288l31.648-1.888L512 652.8l-32.128-0.896z m14.432-73.536v-11.616h-26.08c-4.96 12.096-9.152 19.52-12.576 22.336-1.856 1.536-5.568 2.016-11.168 1.408l-4.192 18.592c11.808 0.64 19.072 0.64 21.888 0 7.136-1.248 13.344-5.28 18.624-12.096l40.96-0.48 3.712-19.072-31.168 0.928z m-35.36-121.408c3.392-4.032 6.656-5.728 9.76-5.12 3.744 0.64 5.76 3.264 6.048 7.904 0.928 4.96 0.448 11.168-1.408 18.624-2.496 8.672-5.12 14.752-7.904 18.144-3.392 4.032-6.816 5.888-10.24 5.568-3.744-0.64-5.76-3.264-6.048-7.904-0.928-4.96-0.32-11.168 1.856-18.624 1.568-7.136 4.224-13.344 7.936-18.592z m43.264-15.84c-6.528-9.312-16.448-13.952-29.792-13.952s-25.152 4.672-35.36 13.952c-10.24 9.312-16.896 21.28-20 35.84-3.104 14.88-1.376 26.976 5.12 36.288 5.92 8.992 15.84 13.504 29.792 13.504a50.88 50.88 0 0 0 35.36-13.504c10.24-9.312 16.768-21.408 19.552-36.288 3.104-15.2 1.536-27.136-4.672-35.84z m-97.28 8.384l-32.096 5.6-13.504 70.24h32.576l13.024-75.84z m-1.376-30.72a24.736 24.736 0 0 0-14.432-1.376 23.68 23.68 0 0 0-13.024 6.528 15.552 15.552 0 0 0-3.744 10.688c0.64 3.712 3.104 6.656 7.456 8.832a22.656 22.656 0 0 0 14.432 1.856 28.352 28.352 0 0 0 13.024-6.528 13.12 13.12 0 0 0 3.744-11.168c-0.64-3.392-3.104-6.336-7.456-8.832z" fill="#232974" p-id="3280"></path><path d="M555.296 869.152c-15.232-0.32-27.008-6.976-35.36-20-8.384-13.632-10.688-29.792-6.976-48.384l15.808-75.36c1.888 0 4.032-0.16 6.528-0.48 5.248-0.32 12.096-0.928 20.48-1.856l3.264-20.032-18.144-0.448a6.88 6.88 0 0 1-4.192-1.408c-1.216-2.176 0.16-10.72 4.192-25.6 4.672-16.128 7.328-25.44 7.936-27.904h43.296c10.528 0 18.144-1.408 22.816-4.192 5.888-3.392 10.048-10.24 12.576-20.48l12.48-58.112-60.96 0.448-14.432 7.904-0.48-7.904h-2.336l9.312-44.192h24.672l10.72-63.744c4-22.624-1.088-33.632-15.36-33.024l34.912-169.344a85.248 85.248 0 0 1 27.008-47.456c13.664-13.024 28.096-19.712 43.296-20h282.048c15.84 0 28.096 6.656 36.768 20 8.384 13.024 10.688 28.832 6.976 47.456l-113.088 545.76a93.344 93.344 0 0 1-26.528 48.384c-13.984 13.344-29.152 20-45.632 20h-281.6z m391.424-441.056l-33.024 1.376-21.888 38.624-6.048-43.296-31.648 7.456 10.24 90.72-29.792 55.808h-12.128l-3.232 22.4c10.88 1.248 20.352 0.16 28.416-3.264 7.424-3.744 12.576-8.832 15.328-15.36l83.776-154.464z m-157.792 21.888c3.712 0 5.92 2.656 6.528 7.936 0.896 4.96 0.16 11.008-2.336 18.144-1.856 7.136-4.8 13.184-8.832 18.144-3.712 4.96-7.296 7.424-10.72 7.424-3.392 0-5.408-2.496-6.016-7.424a41.92 41.92 0 0 1 1.408-18.144c2.464-7.136 5.568-13.184 9.28-18.144 3.744-5.312 7.296-7.936 10.688-7.936z m-85.184 223.296l-6.496 23.296h-22.816l6.528-23.296h22.784z m10.72-44.64l-4.192 18.144a102.784 102.784 0 0 0-24.224 7.904l6.048-26.048h22.368z m75.424-1.856l-5.12 19.52h-33.504l-2.816 19.072h28.416c-1.568 1.888-4.8 7.616-9.792 17.216-4.672 8.992-8.672 15.232-12.096 18.624-4.032 4.352-9.312 5.248-15.808 2.784l-4.224 20.928h20.032c8.064 0 15.2-3.712 21.408-11.168a222.4 222.4 0 0 0 16.288-20.928c4.352 18.272 8.544 28.544 12.576 30.72 1.248 0.608 9.952 0.896 26.048 0.896l3.296-20.928h-3.712c-2.176 0-3.744-0.48-4.672-1.376l-8.416-30.72-10.688-0.48 0.928-6.496h36.32l2.784-18.144-30.72-0.48 5.12-20 30.24-0.48 5.12-19.52h-95.424l-5.088 20.928h33.504z m-87.52-40.032h21.888l-4.192 17.696a133.632 133.632 0 0 0-23.744 7.904l6.048-25.6z m14.88-21.408l-12.576 7.456-0.928-7.456h-28.384c-5.92 24.8-15.84 69.024-29.824 132.64h-6.496l-4.672 19.072h59.136l-2.304 8.352 31.648-0.48 3.264-8.832h7.904l3.744-18.112-6.528-0.48 25.6-114.016h5.12l5.6-17.696-50.304-0.448z m87.072 11.648a82.752 82.752 0 0 1-0.928-12.096l-29.312 0.448-0.928 22.336c-0.32 7.424 5.088 11.168 16.288 11.168l21.408 0.48 3.264-19.072c-5.6 0-8.896-1.088-9.792-3.264z m-40.512-144.704c-11.2 7.136-19.104 16.608-23.744 28.384-8.384 14.88-9.472 30.688-3.264 47.456 6.496 18.304 18.784 22.656 36.736 13.024 4.384-2.464 7.456-4.352 9.312-5.6l0.512 7.456h35.328l17.216-95.392-35.36 3.264-1.376 4.192c-9.6-10.528-21.376-11.456-35.36-2.784z m-67.04-46.528c16.736 0.32 21.568 9.152 14.432 26.528-6.848 17.376-17.056 25.76-30.72 25.12h-11.648l10.72-52.096 17.216 0.448z m51.2 40.928c11.488-17.664 11.968-35.648 1.408-53.984-4.672-8.672-14.88-13.024-30.72-13.024l-70.752-0.928-35.36 164.256h33.984l13.024-60.512c15.84 1.248 31.648-0.768 47.488-6.048 18.624-6.176 32.256-16.096 40.928-29.76z m-139.168 158.208l-2.816 15.808c-21.408-1.888-37.056-1.088-47.008 2.304l2.336-18.112h47.488z m-20.928 70.72h-25.152l0.928 53.984c0 4.032 1.568 6.976 4.672 8.832 2.784 3.104 9.472 4.32 20.032 3.712l15.808-0.48 3.712-18.624c-9.952-0.32-15.328-0.736-16.288-1.376-2.176-1.568-2.816-8.224-1.888-20h12.576c8.096 0 13.184-2.496 15.36-7.456 0.928-1.216 2.464-7.296 4.672-18.112h-17.696c0.32 5.248-0.32 8.224-1.888 8.832-0.608 0.32-5.408 0.736-14.4 1.376l-0.448-10.688z m9.312-36.288c3.392 5.92 2.464 8.832-2.816 8.832H552.96l1.376-8.832h42.848z" fill="#2A8575" p-id="3281"></path></svg>